<svg width="81" height="65" viewBox="0 0 81 65" fill="none" xmlns="http://www.w3.org/2000/svg">
<rect x="18.3267" y="36.8373" width="22.5043" height="13.327" fill="white" stroke="#F4F2F2" stroke-width="3"/>
<rect x="40.8308" y="36.8373" width="22.7249" height="13.327" fill="white" stroke="#F4F2F2" stroke-width="3"/>
<path d="M11.2664 9.48884C11.2664 9.48884 33.2361 5.02977 37.5848 14.3533C41.9336 23.6767 39.9277 48.4041 39.9277 48.4041C29.2844 44.4445 23.0132 44.4138 11.2664 48.4041V9.48884Z" fill="white" stroke="#F4F2F2" stroke-width="3"/>
<path d="M70.1934 9.45283C70.1934 9.45283 48.1641 5.0739 43.8321 14.4381C39.5002 23.8022 41.5796 48.5814 41.5796 48.5814C52.2347 44.5681 58.5192 44.5113 70.3024 48.4627L70.1934 9.45283Z" fill="white" stroke="#F4F2F2" stroke-width="3"/>
<path d="M2.44141 3.28296C2.44141 3.28296 31.235 -1.51264 36.9345 8.5145C42.634 18.5416 40.0052 45.1352 40.0052 45.1352C26.0559 40.8768 17.8369 40.8438 2.44141 45.1352V3.28296Z" fill="white" stroke="#F4F2F2" stroke-width="3"/>
<path d="M78.6527 3.15067C78.6527 3.15067 49.9995 -1.54764 44.3593 8.54149C38.719 18.6306 41.4099 45.3171 41.4099 45.3171C55.2723 40.986 63.4472 40.9197 78.7725 45.1659L78.6527 3.15067Z" fill="white" stroke="#F4F2F2" stroke-width="3"/>
<ellipse cx="53.6274" cy="26.3909" rx="2.2063" ry="2.51453" fill="#F4F2F2"/>
<ellipse cx="54.7307" cy="36.1976" rx="2.2063" ry="2.51453" fill="#F4F2F2"/>
<ellipse cx="21.636" cy="31.6715" rx="2.2063" ry="2.51453" fill="#F4F2F2"/>
<ellipse cx="14.7964" cy="24.3793" rx="2.2063" ry="2.51453" fill="#F4F2F2"/>
<ellipse cx="68.1892" cy="23.8764" rx="2.2063" ry="2.51453" fill="#F4F2F2"/>
<ellipse cx="67.0859" cy="15.8299" rx="2.2063" ry="2.51453" fill="#F4F2F2"/>
<path d="M63.9971 10.0465C63.9971 11.4352 63.0093 12.561 61.7908 12.561C60.5723 12.561 59.5845 11.4352 59.5845 10.0465C59.5845 8.65775 60.5723 7.53195 61.7908 7.53195C63.0093 7.53195 63.9971 8.65775 63.9971 10.0465Z" fill="#F4F2F2"/>
<path d="M12.5901 7.53196C12.5901 8.92069 11.6023 10.0465 10.3838 10.0465C9.16529 10.0465 8.17749 8.92069 8.17749 7.53196C8.17749 6.14322 9.16529 5.01743 10.3838 5.01743C11.6023 5.01743 12.5901 6.14322 12.5901 7.53196Z" fill="#F4F2F2"/>
<ellipse cx="27.3723" cy="26.1395" rx="2.2063" ry="2.51453" fill="#F4F2F2"/>
<path d="M53.322 28.1315L51.3363 33.5664" stroke="#F4F2F2" stroke-width="3"/>
<path d="M20.9741 33.1801L18.9884 38.6151" stroke="#F4F2F2" stroke-width="3"/>
<path d="M68.8511 11.5552L67.1549 16.1978" stroke="#F4F2F2" stroke-width="3"/>
<path d="M62.0115 30.9171L60.0258 36.352" stroke="#F4F2F2" stroke-width="3"/>
<line y1="-1.5" x2="5.78627" y2="-1.5" transform="matrix(-0.343218 -0.939256 0.903401 -0.428796 30.9028 32.58)" stroke="#F4F2F2" stroke-width="3"/>
<line y1="-1.5" x2="5.78627" y2="-1.5" transform="matrix(-0.343218 -0.939256 0.903401 -0.428796 61.5706 23.7792)" stroke="#F4F2F2" stroke-width="3"/>
<line y1="-1.5" x2="3.70709" y2="-1.5" transform="matrix(-0.343218 -0.939256 0.903401 -0.428796 22.2981 10.2007)" stroke="#F4F2F2" stroke-width="3"/>
<line y1="-1.5" x2="5.78627" y2="-1.5" transform="matrix(-0.343218 -0.939256 0.903401 -0.428796 22.2981 19.2531)" stroke="#F4F2F2" stroke-width="3"/>
<line x1="29.1375" y1="32.6859" x2="51.8624" y2="32.6859" stroke="#F4F2F2" stroke-width="3"/>
<line x1="68.1892" y1="12.0668" x2="79.0001" y2="12.0668" stroke="#F4F2F2" stroke-width="3"/>
<line x1="44.3542" y1="9.67801" x2="60.2534" y2="9.67801" stroke="#F4F2F2" stroke-width="3"/>
<line y1="-1.5" x2="17.4318" y2="-1.5" transform="matrix(0.999896 0.0144251 -0.0111059 0.999938 41.7134 20.6075)" stroke="#F4F2F2" stroke-width="3"/>
<line y1="-1.5" x2="17.4318" y2="-1.5" transform="matrix(0.999896 0.0144251 -0.0111059 0.999938 20.533 11.0523)" stroke="#F4F2F2" stroke-width="3"/>
<line y1="-1.5" x2="8.82554" y2="-1.5" transform="matrix(0.999896 0.0144251 -0.0111059 0.999938 11.9282 8.78922)" stroke="#F4F2F2" stroke-width="3"/>
<line y1="-1.5" x2="17.4318" y2="-1.5" transform="matrix(0.999896 0.0144251 -0.0111059 0.999938 2.66187 16.0814)" stroke="#F4F2F2" stroke-width="3"/>
<line y1="-1.5" x2="17.4318" y2="-1.5" transform="matrix(0.999896 0.0144251 -0.0111059 0.999938 2.44141 38.7121)" stroke="#F4F2F2" stroke-width="3"/>
<line x1="2" y1="23.8851" x2="13.2521" y2="23.8851" stroke="#F4F2F2" stroke-width="3"/>
<line y1="-1.5" x2="17.4318" y2="-1.5" transform="matrix(0.999896 0.0144251 -0.0111059 0.999938 61.5703 33.1801)" stroke="#F4F2F2" stroke-width="3"/>
<line y1="-1.5" x2="5.30208" y2="-1.5" transform="matrix(0.998874 -0.0474341 0.0365348 0.999332 55.6133 37.7063)" stroke="#F4F2F2" stroke-width="3"/>
<line x1="59.7417" y1="23.8851" x2="66.7082" y2="23.8851" stroke="#F4F2F2" stroke-width="3"/>
<line x1="20.3123" y1="18.856" x2="27.2787" y2="18.856" stroke="#F4F2F2" stroke-width="3"/>
<ellipse cx="29.1375" cy="19.3502" rx="2.2063" ry="2.51453" fill="#F4F2F2"/>
<path d="M38.1833 52.1759H45.0229V65L41.6031 59.7949L38.1833 65V52.1759Z" fill="#FF370B"/>
</svg>
